<?xml version="1.0" encoding="utf-8" standalone="yes"?>
<!DOCTYPE svg PUBLIC "-//W3C//DTD SVG 1.1//EN" "http://www.w3.org/Graphics/SVG/1.1/DTD/svg11.dtd">
<svg width="817" height="481" viewBox="0 0 817 481" style="fill:none;stroke:none;fill-rule:evenodd;clip-rule:evenodd;stroke-linecap:round;stroke-linejoin:round;stroke-miterlimit:1.5;" version="1.1" xmlns="http://www.w3.org/2000/svg" xmlns:xlink="http://www.w3.org/1999/xlink"><style id="fontImports">@import url("https://fonts.googleapis.com/css2?family=Roboto:wght@400;700&amp;display=block");</style><g id="items" style="isolation: isolate"><g id="blend" style="mix-blend-mode:normal"><g id="g-root-ro_qqakf4xvwu82-fill" data-item-order="999980344" data-item-id="ro_qqakf4xvwu82" data-item-class="Shape Stroke Fill" data-item-index="none" data-renderer-id="0" transform="translate(279, 75)"><g id="ro_qqakf4xvwu82-fill" stroke="none" fill="#f0f0f0"><g><path d="M 34 10L 142 10C 142 10 166 10 166 34L 166 112C 166 112 166 136 142 136L 34 136C 34 136 10 136 10 112L 10 34C 10 34 10 10 34 10"></path></g></g></g><g id="g-root-ro_v8lyw0xvzpc2-fill" data-item-order="999985744" data-item-id="ro_v8lyw0xvzpc2" data-item-class="Shape Stroke Fill" data-item-index="none" data-renderer-id="0" transform="translate(483, 39)"><g id="ro_v8lyw0xvzpc2-fill" stroke="none" fill="#e6f9ff"><g><path d="M 22 10L 262 10C 262 10 274 10 274 22L 274 52C 274 52 274 64 262 64L 22 64C 22 64 10 64 10 52L 10 22C 10 22 10 10 22 10"></path></g></g></g><g id="g-root-ro_v5hlggxvyarq-fill" data-item-order="999987040" data-item-id="ro_v5hlggxvyarq" data-item-class="Shape Stroke Fill" data-item-index="none" data-renderer-id="0" transform="translate(237, 297)"><g id="ro_v5hlggxvyarq-fill" stroke="none" fill="#e6efff"><g><path d="M 22 10L 238 10C 238 10 250 10 250 22L 250 52C 250 52 250 64 238 64L 22 64C 22 64 10 64 10 52L 10 22C 10 22 10 10 22 10"></path></g></g></g><g id="g-root-ro_1448z4wxw11xp-fill" data-item-order="999987688" data-item-id="ro_1448z4wxw11xp" data-item-class="Shape Stroke Fill" data-item-index="none" data-renderer-id="0" transform="translate(3, 3)"><g id="ro_1448z4wxw11xp-fill" stroke="none" fill="#e9fbf3"><g><path d="M 22 10L 226 10C 226 10 238 10 238 22L 238 52C 238 52 238 64 226 64L 22 64C 22 64 10 64 10 52L 10 22C 10 22 10 10 22 10"></path></g></g></g><g id="g-root-cu_v8lyw0xw13im-fill" data-item-order="1000000000" data-item-id="cu_v8lyw0xw13im" data-item-class="Curve Stroke ColorStrokeGray" data-item-index="none" data-renderer-id="0" transform="translate(189, 57)"></g><g id="g-root-cu_qtexuoxw1155-fill" data-item-order="1000000000" data-item-id="cu_qtexuoxw1155" data-item-class="Curve Stroke ColorStrokeGray" data-item-index="none" data-renderer-id="0" transform="translate(189, 57)"></g><g id="g-root-cu_qtexuoxw1157-fill" data-item-order="1000000000" data-item-id="cu_qtexuoxw1157" data-item-class="Curve Stroke ColorStrokeGray" data-item-index="none" data-renderer-id="0" transform="translate(189, 57)"></g><g id="g-root-cu_qtexuoxw1159-fill" data-item-order="1000000000" data-item-id="cu_qtexuoxw1159" data-item-class="Curve Stroke ColorStrokeGray" data-item-index="none" data-renderer-id="0" transform="translate(189, 57)"></g><g id="g-root-cu_mdlfq8xw11xj-fill" data-item-order="1000000000" data-item-id="cu_mdlfq8xw11xj" data-item-class="Curve Stroke ColorStrokeGray" data-item-index="none" data-renderer-id="0" transform="translate(189, 57)"></g><g id="g-root-phon_v8lyw0xvzpc1-fill" data-item-order="1000000000" data-item-id="phon_v8lyw0xvzpc1" data-item-class="Icon Stroke" data-item-index="none" data-renderer-id="0" transform="translate(495, 51)"></g><g id="g-root-cu_zofh0gxw12q4-fill" data-item-order="1000000000" data-item-id="cu_zofh0gxw12q4" data-item-class="Curve Stroke ColorStrokeGray" data-item-index="none" data-renderer-id="0" transform="translate(435, 66)"></g><g id="g-root-tx_develope_18k2h9cxvznr4-fill" data-item-order="1000000000" data-item-id="tx_develope_18k2h9cxvznr4" data-item-class="Label Stroke" data-item-index="none" data-renderer-id="0" transform="translate(531, 54)"><g id="tx_develope_18k2h9cxvznr4-fill" stroke="none" fill="#17b0e3"><g><text style="font: 20px Roboto, sans-serif; white-space: pre;" font-weight="20px" font-size="Roboto," font-family="sans-serif"><tspan x="16.52" y="33.5" dominant-baseline="ideographic">Developer Experience</tspan></text></g></g></g><g id="g-root-tx_browsefi_hxrxlsxvznra-fill" data-item-order="1000000000" data-item-id="tx_browsefi_hxrxlsxvznra" data-item-class="Label Stroke" data-item-index="none" data-renderer-id="0" transform="translate(63, 69)"><g id="tx_browsefi_hxrxlsxvznra-fill" stroke="none" fill="#484848"><g><text style="font: 20px Roboto, sans-serif; white-space: pre;" font-weight="20px" font-size="Roboto," font-family="sans-serif"><tspan x="13.5" y="33.5" dominant-baseline="ideographic">Browse Files</tspan></text></g></g></g><g id="g-root-cu_mdlfq8xw11xl-fill" data-item-order="1000000000" data-item-id="cu_mdlfq8xw11xl" data-item-class="Curve Stroke ColorStrokeGray" data-item-index="none" data-renderer-id="0" transform="translate(189, 57)"></g><g id="g-root-cu_zofh0gxw12q1-fill" data-item-order="1000000000" data-item-id="cu_zofh0gxw12q1" data-item-class="Curve Stroke ColorStrokeGray" data-item-index="none" data-renderer-id="0" transform="translate(231, 30)"></g><g id="g-root-tx_uploadfi_924xcwxvzojz-fill" data-item-order="1000000000" data-item-id="tx_uploadfi_924xcwxvzojz" data-item-class="Label Stroke" data-item-index="none" data-renderer-id="0" transform="translate(63, 105)"><g id="tx_uploadfi_924xcwxvzojz-fill" stroke="none" fill="#484848"><g><text style="font: 20px Roboto, sans-serif; white-space: pre;" font-weight="20px" font-size="Roboto," font-family="sans-serif"><tspan x="15.38" y="33.5" dominant-baseline="ideographic">Upload Files</tspan></text></g></g></g><g id="g-root-dock_v642jkxvwtft-fill" data-item-order="1000000000" data-item-id="dock_v642jkxvwtft" data-item-class="Icon Stroke" data-item-index="none" data-renderer-id="0" transform="translate(333, 99)"></g><g id="g-root-cu_mdlfq8xw11xn-fill" data-item-order="1000000000" data-item-id="cu_mdlfq8xw11xn" data-item-class="Curve Stroke ColorStrokeGray" data-item-index="none" data-renderer-id="0" transform="translate(507, 93)"></g><g id="g-root-cu_mdlfq8xw11xq-fill" data-item-order="1000000000" data-item-id="cu_mdlfq8xw11xq" data-item-class="Curve Stroke ColorStrokeGray" data-item-index="none" data-renderer-id="0" transform="translate(507, 93)"></g><g id="g-root-cu_hxrxlsxw12q0-fill" data-item-order="1000000000" data-item-id="cu_hxrxlsxw12q0" data-item-class="Curve Stroke ColorStrokeGray" data-item-index="none" data-renderer-id="0" transform="translate(507, 93)"></g><g id="g-root-cu_hxrxlsxw12q2-fill" data-item-order="1000000000" data-item-id="cu_hxrxlsxw12q2" data-item-class="Curve Stroke ColorStrokeGray" data-item-index="none" data-renderer-id="0" transform="translate(507, 93)"></g><g id="g-root-tx_cleanint_74e74xvzmys-fill" data-item-order="1000000000" data-item-id="tx_cleanint_74e74xvzmys" data-item-class="Label Stroke" data-item-index="none" data-renderer-id="0" transform="translate(531, 105)"><g id="tx_cleanint_74e74xvzmys-fill" stroke="none" fill="#484848"><g><text style="font: 20px Roboto, sans-serif; white-space: pre;" font-weight="20px" font-size="Roboto," font-family="sans-serif"><tspan x="14.63" y="33.5" dominant-baseline="ideographic">Clean Interface</tspan></text></g></g></g><g id="g-root-tx_download_dhyfhcxvzojk-fill" data-item-order="1000000000" data-item-id="tx_download_dhyfhcxvzojk" data-item-class="Label Stroke" data-item-index="none" data-renderer-id="0" transform="translate(39, 141)"><g id="tx_download_dhyfhcxvzojk-fill" stroke="none" fill="#484848"><g><text style="font: 20px Roboto, sans-serif; white-space: pre;" font-weight="20px" font-size="Roboto," font-family="sans-serif"><tspan x="14.19" y="33.5" dominant-baseline="ideographic">Download Files</tspan></text></g></g></g><g id="g-root-tx_dockerfl_1lsem74xvwtfs-fill" data-item-order="1000000000" data-item-id="tx_dockerfl_1lsem74xvwtfs" data-item-class="Label Stroke" data-item-index="none" data-renderer-id="0" transform="translate(303, 153)"><g id="tx_dockerfl_1lsem74xvwtfs-fill" stroke="none" fill="#484848"><g><text style="font: 20px Roboto, sans-serif; white-space: pre;" font-weight="20px" font-size="Roboto," font-family="sans-serif"><tspan x="14.64" y="33.5" dominant-baseline="ideographic">DockerFlex</tspan></text></g></g></g><g id="g-root-tx_fastandr_74e74xvzmyt-fill" data-item-order="1000000000" data-item-id="tx_fastandr_74e74xvzmyt" data-item-class="Label Stroke" data-item-index="none" data-renderer-id="0" transform="translate(531, 141)"><g id="tx_fastandr_74e74xvzmyt-fill" stroke="none" fill="#484848"><g><text style="font: 20px Roboto, sans-serif; white-space: pre;" font-weight="20px" font-size="Roboto," font-family="sans-serif"><tspan x="14.13" y="33.5" dominant-baseline="ideographic">Fast and Responsive</tspan></text></g></g></g><g id="g-root-tx_realtime_hxrxlsxvznr9-fill" data-item-order="1000000000" data-item-id="tx_realtime_hxrxlsxvznr9" data-item-class="Label Stroke" data-item-index="none" data-renderer-id="0" transform="translate(285, 435)"><g id="tx_realtime_hxrxlsxvznr9-fill" stroke="none" fill="#484848"><g><text style="font: 20px Roboto, sans-serif; white-space: pre;" font-weight="20px" font-size="Roboto," font-family="sans-serif"><tspan x="12.79" y="33.5" dominant-baseline="ideographic">Real-time Updates</tspan></text></g></g></g><g id="g-root-tx_crosspla_1qclfxcxvznke-fill" data-item-order="1000000000" data-item-id="tx_crosspla_1qclfxcxvznke" data-item-class="Label Stroke" data-item-index="none" data-renderer-id="0" transform="translate(531, 177)"><g id="tx_crosspla_1qclfxcxvznke-fill" stroke="none" fill="#484848"><g><text style="font: 20px Roboto, sans-serif; white-space: pre;" font-weight="20px" font-size="Roboto," font-family="sans-serif"><tspan x="14.28" y="33.5" dominant-baseline="ideographic">Cross-platform Compatibility</tspan></text></g></g></g><g id="g-root-tx_deletefi_4mbf8gxvzpca-fill" data-item-order="1000000000" data-item-id="tx_deletefi_4mbf8gxvzpca" data-item-class="Label Stroke" data-item-index="none" data-renderer-id="0" transform="translate(75, 213)"><g id="tx_deletefi_4mbf8gxvzpca-fill" stroke="none" fill="#484848"><g><text style="font: 20px Roboto, sans-serif; white-space: pre;" font-weight="20px" font-size="Roboto," font-family="sans-serif"><tspan x="12.54" y="33.5" dominant-baseline="ideographic">Delete Files</tspan></text></g></g></g><g id="g-root-cu_1448z4wxw11xq-fill" data-item-order="1000000000" data-item-id="cu_1448z4wxw11xq" data-item-class="Curve Stroke ColorStrokeGray" data-item-index="none" data-renderer-id="0" transform="translate(357, 201)"></g><g id="g-root-tx_noinstal_1lwrxswxvzocn-fill" data-item-order="1000000000" data-item-id="tx_noinstal_1lwrxswxvzocn" data-item-class="Label Stroke" data-item-index="none" data-renderer-id="0" transform="translate(531, 213)"><g id="tx_noinstal_1lwrxswxvzocn-fill" stroke="none" fill="#484848"><g><text style="font: 20px Roboto, sans-serif; white-space: pre;" font-weight="20px" font-size="Roboto," font-family="sans-serif"><tspan x="17.6" y="33.5" dominant-baseline="ideographic">No Installation Required</tspan></text></g></g></g><g id="g-root-tx_createne_4mbf8gxvzpcb-fill" data-item-order="1000000000" data-item-id="tx_createne_4mbf8gxvzpcb" data-item-class="Label Stroke" data-item-index="none" data-renderer-id="0" transform="translate(27, 249)"><g id="tx_createne_4mbf8gxvzpcb-fill" stroke="none" fill="#484848"><g><text style="font: 20px Roboto, sans-serif; white-space: pre;" font-weight="20px" font-size="Roboto," font-family="sans-serif"><tspan x="13.17" y="33.5" dominant-baseline="ideographic">Create New Files</tspan></text></g></g></g><g id="g-root-alte_1czvzdsxw1150-fill" data-item-order="1000000000" data-item-id="alte_1czvzdsxw1150" data-item-class="Icon Stroke" data-item-index="none" data-renderer-id="0" transform="translate(189, 15)"></g><g id="g-root-milk_v5hlggxvyarp-fill" data-item-order="1000000000" data-item-id="milk_v5hlggxvyarp" data-item-class="Icon Stroke" data-item-index="none" data-renderer-id="0" transform="translate(249, 309)"></g><g id="g-root-tx_containe_zlb3kwxvy9zg-fill" data-item-order="1000000000" data-item-id="tx_containe_zlb3kwxvy9zg" data-item-class="Label Stroke" data-item-index="none" data-renderer-id="0" transform="translate(285, 312)"><g id="tx_containe_zlb3kwxvy9zg-fill" stroke="none" fill="#4682e3"><g><text style="font: 20px Roboto, sans-serif; white-space: pre;" font-weight="20px" font-size="Roboto," font-family="sans-serif"><tspan x="13.95" y="33.5" dominant-baseline="ideographic">Container Overview</tspan></text></g></g></g><g id="g-root-cu_zofh0gxw12q7-fill" data-item-order="1000000000" data-item-id="cu_zofh0gxw12q7" data-item-class="Curve Stroke ColorStrokeGray" data-item-index="none" data-renderer-id="0" transform="translate(261, 351)"></g><g id="g-root-cu_v8lyw0xw13ii-fill" data-item-order="1000000000" data-item-id="cu_v8lyw0xw13ii" data-item-class="Curve Stroke ColorStrokeGray" data-item-index="none" data-renderer-id="0" transform="translate(261, 351)"></g><g id="g-root-cu_v8lyw0xw13ik-fill" data-item-order="1000000000" data-item-id="cu_v8lyw0xw13ik" data-item-class="Curve Stroke ColorStrokeGray" data-item-index="none" data-renderer-id="0" transform="translate(261, 351)"></g><g id="g-root-tx_viewallc_mdlfq8xvzmyz-fill" data-item-order="1000000000" data-item-id="tx_viewallc_mdlfq8xvzmyz" data-item-class="Label Stroke" data-item-index="none" data-renderer-id="0" transform="translate(285, 363)"><g id="tx_viewallc_mdlfq8xvzmyz-fill" stroke="none" fill="#484848"><g><text style="font: 20px Roboto, sans-serif; white-space: pre;" font-weight="20px" font-size="Roboto," font-family="sans-serif"><tspan x="13.85" y="33.5" dominant-baseline="ideographic">View All Containers</tspan></text></g></g></g><g id="g-root-tx_quickacc_mdlfq8xvzmz0-fill" data-item-order="1000000000" data-item-id="tx_quickacc_mdlfq8xvzmz0" data-item-class="Label Stroke" data-item-index="none" data-renderer-id="0" transform="translate(285, 399)"><g id="tx_quickacc_mdlfq8xvzmz0-fill" stroke="none" fill="#484848"><g><text style="font: 20px Roboto, sans-serif; white-space: pre;" font-weight="20px" font-size="Roboto," font-family="sans-serif"><tspan x="13.41" y="33.5" dominant-baseline="ideographic">Quick Access to Details</tspan></text></g></g></g><g id="g-root-tx_filemana_1hf30f4xw13ij-fill" data-item-order="1000000000" data-item-id="tx_filemana_1hf30f4xw13ij" data-item-class="Label Stroke" data-item-index="none" data-renderer-id="0" transform="translate(15, 18)"><g id="tx_filemana_1hf30f4xw13ij-fill" stroke="none" fill="#3bc482"><g><text style="font: 20px Roboto, sans-serif; white-space: pre;" font-weight="20px" font-size="Roboto," font-family="sans-serif"><tspan x="16.96" y="33.5" dominant-baseline="ideographic">File Management</tspan></text></g></g></g><g id="g-root-tx_editfile_4mbf8gxvzpc9-fill" data-item-order="1000000000" data-item-id="tx_editfile_4mbf8gxvzpc9" data-item-class="Label Stroke" data-item-index="none" data-renderer-id="0" transform="translate(99, 177)"><g id="tx_editfile_4mbf8gxvzpc9-fill" stroke="none" fill="#484848"><g><text style="font: 20px Roboto, sans-serif; white-space: pre;" font-weight="20px" font-size="Roboto," font-family="sans-serif"><tspan x="11.77" y="33.5" dominant-baseline="ideographic">Edit Files</tspan></text></g></g></g><g id="g-root-ro_qqakf4xvwu82-stroke" data-item-order="999980344" data-item-id="ro_qqakf4xvwu82" data-item-class="Shape Stroke Fill" data-item-index="none" data-renderer-id="0" transform="translate(279, 75)"><g id="ro_qqakf4xvwu82-stroke" fill="none" stroke-linecap="round" stroke-linejoin="round" stroke-miterlimit="4" stroke="#484848" stroke-width="2"><g><path d="M 34 10L 142 10C 142 10 166 10 166 34L 166 112C 166 112 166 136 142 136L 34 136C 34 136 10 136 10 112L 10 34C 10 34 10 10 34 10"></path></g></g></g><g id="g-root-ro_v8lyw0xvzpc2-stroke" data-item-order="999985744" data-item-id="ro_v8lyw0xvzpc2" data-item-class="Shape Stroke Fill" data-item-index="none" data-renderer-id="0" transform="translate(483, 39)"><g id="ro_v8lyw0xvzpc2-stroke" fill="none" stroke-linecap="round" stroke-linejoin="round" stroke-miterlimit="4" stroke="#17b0e3" stroke-width="2"><g><path d="M 22 10L 262 10C 262 10 274 10 274 22L 274 52C 274 52 274 64 262 64L 22 64C 22 64 10 64 10 52L 10 22C 10 22 10 10 22 10"></path></g></g></g><g id="g-root-ro_v5hlggxvyarq-stroke" data-item-order="999987040" data-item-id="ro_v5hlggxvyarq" data-item-class="Shape Stroke Fill" data-item-index="none" data-renderer-id="0" transform="translate(237, 297)"><g id="ro_v5hlggxvyarq-stroke" fill="none" stroke-linecap="round" stroke-linejoin="round" stroke-miterlimit="4" stroke="#4682e3" stroke-width="2"><g><path d="M 22 10L 238 10C 238 10 250 10 250 22L 250 52C 250 52 250 64 238 64L 22 64C 22 64 10 64 10 52L 10 22C 10 22 10 10 22 10"></path></g></g></g><g id="g-root-ro_1448z4wxw11xp-stroke" data-item-order="999987688" data-item-id="ro_1448z4wxw11xp" data-item-class="Shape Stroke Fill" data-item-index="none" data-renderer-id="0" transform="translate(3, 3)"><g id="ro_1448z4wxw11xp-stroke" fill="none" stroke-linecap="round" stroke-linejoin="round" stroke-miterlimit="4" stroke="#3bc482" stroke-width="2"><g><path d="M 22 10L 226 10C 226 10 238 10 238 22L 238 52C 238 52 238 64 226 64L 22 64C 22 64 10 64 10 52L 10 22C 10 22 10 10 22 10"></path></g></g></g><g id="g-root-cu_v8lyw0xw13im-stroke" data-item-order="1000000000" data-item-id="cu_v8lyw0xw13im" data-item-class="Curve Stroke ColorStrokeGray" data-item-index="none" data-renderer-id="0" transform="translate(189, 57)"><g id="cu_v8lyw0xw13im-stroke" fill="none" stroke-linecap="round" stroke-linejoin="round" stroke-miterlimit="4" stroke="#888888" stroke-width="2" stroke-dasharray="5.0, 7.0"><g><path d="M 28 10L 28 22L 28 34L 19 34L 10 34"></path></g></g></g><g id="g-root-cu_qtexuoxw1155-stroke" data-item-order="1000000000" data-item-id="cu_qtexuoxw1155" data-item-class="Curve Stroke ColorStrokeGray" data-item-index="none" data-renderer-id="0" transform="translate(189, 57)"><g id="cu_qtexuoxw1155-stroke" fill="none" stroke-linecap="round" stroke-linejoin="round" stroke-miterlimit="4" stroke="#888888" stroke-width="2" stroke-dasharray="5.0, 7.0"><g><path d="M 28 10L 28 40L 28 70L 19 70L 10 70"></path></g></g></g><g id="g-root-cu_qtexuoxw1157-stroke" data-item-order="1000000000" data-item-id="cu_qtexuoxw1157" data-item-class="Curve Stroke ColorStrokeGray" data-item-index="none" data-renderer-id="0" transform="translate(189, 57)"><g id="cu_qtexuoxw1157-stroke" fill="none" stroke-linecap="round" stroke-linejoin="round" stroke-miterlimit="4" stroke="#888888" stroke-width="2" stroke-dasharray="5.0, 7.0"><g><path d="M 28 10L 28 58L 28 106L 19 106L 10 106"></path></g></g></g><g id="g-root-cu_qtexuoxw1159-stroke" data-item-order="1000000000" data-item-id="cu_qtexuoxw1159" data-item-class="Curve Stroke ColorStrokeGray" data-item-index="none" data-renderer-id="0" transform="translate(189, 57)"><g id="cu_qtexuoxw1159-stroke" fill="none" stroke-linecap="round" stroke-linejoin="round" stroke-miterlimit="4" stroke="#888888" stroke-width="2" stroke-dasharray="5.0, 7.0"><g><path d="M 28 10L 28 76L 28 142L 19 142L 10 142"></path></g></g></g><g id="g-root-cu_mdlfq8xw11xj-stroke" data-item-order="1000000000" data-item-id="cu_mdlfq8xw11xj" data-item-class="Curve Stroke ColorStrokeGray" data-item-index="none" data-renderer-id="0" transform="translate(189, 57)"><g id="cu_mdlfq8xw11xj-stroke" fill="none" stroke-linecap="round" stroke-linejoin="round" stroke-miterlimit="4" stroke="#888888" stroke-width="2" stroke-dasharray="5.0, 7.0"><g><path d="M 28 10L 28 94L 28 178L 19 178L 10 178"></path></g></g></g><g id="g-root-phon_v8lyw0xvzpc1-stroke" data-item-order="1000000000" data-item-id="phon_v8lyw0xvzpc1" data-item-class="Icon Stroke" data-item-index="none" data-renderer-id="0" transform="translate(495, 51)"><g id="phon_v8lyw0xvzpc1-stroke" fill="none" stroke-linecap="round" stroke-linejoin="round" stroke-miterlimit="4" stroke="#17b0e3" stroke-width="2"><g><path d="M 31.25 25.625L 36.25 25.625M 22.5 34.375L 22.5 38.125C 22.5 38.815353 21.940357 39.375 21.25 39.375L 15 39.375C 14.309644 39.375 13.75 38.815353 13.75 38.125L 13.75 28.125C 13.75 27.434643 14.309644 26.875 15 26.875L 16.875 26.875M 13.75 36.875L 22.5 36.875M 20 24.375L 20 12.5C 20 11.464466 20.839466 10.625 21.875 10.625L 34.375 10.625C 35.410534 10.625 36.25 11.464466 36.25 12.5L 36.25 27.5C 36.25 28.535534 35.410534 29.375002 34.375 29.375L 26.25 29.375M 27.5 23.125L 18.75 31.875M 23.75 23.125L 27.5 23.125L 27.5 26.875M 18.75 28.125L 18.75 31.875L 22.5 31.875"></path></g></g></g><g id="g-root-cu_zofh0gxw12q4-stroke" data-item-order="1000000000" data-item-id="cu_zofh0gxw12q4" data-item-class="Curve Stroke ColorStrokeGray" data-item-index="none" data-renderer-id="0" transform="translate(435, 66)"><g id="cu_zofh0gxw12q4-stroke" fill="none" stroke-linecap="round" stroke-linejoin="round" stroke-miterlimit="4" stroke="#888888" stroke-width="2" stroke-dasharray="5.0, 7.0"><g><path d="M 10 61L 13 61L 13.1 61C 24.642753 60.999998 34.000001 51.642749 34.000001 40.099998L 34 40L 34 30.9C 33.999999 19.357249 43.357248 10.000001 54.899999 10.000002L 55 10L 58 10"></path></g></g></g><g id="g-root-tx_develope_18k2h9cxvznr4-stroke" data-item-order="1000000000" data-item-id="tx_develope_18k2h9cxvznr4" data-item-class="Label Stroke" data-item-index="none" data-renderer-id="0" transform="translate(531, 54)"></g><g id="g-root-tx_browsefi_hxrxlsxvznra-stroke" data-item-order="1000000000" data-item-id="tx_browsefi_hxrxlsxvznra" data-item-class="Label Stroke" data-item-index="none" data-renderer-id="0" transform="translate(63, 69)"></g><g id="g-root-cu_mdlfq8xw11xl-stroke" data-item-order="1000000000" data-item-id="cu_mdlfq8xw11xl" data-item-class="Curve Stroke ColorStrokeGray" data-item-index="none" data-renderer-id="0" transform="translate(189, 57)"><g id="cu_mdlfq8xw11xl-stroke" fill="none" stroke-linecap="round" stroke-linejoin="round" stroke-miterlimit="4" stroke="#888888" stroke-width="2" stroke-dasharray="5.0, 7.0"><g><path d="M 28 10L 28 35.5L 28 202C 28.000013 208.62743 22.62743 214.000014 16.000013 214.000014L 15.9 214L 10 214"></path></g></g></g><g id="g-root-cu_zofh0gxw12q1-stroke" data-item-order="1000000000" data-item-id="cu_zofh0gxw12q1" data-item-class="Curve Stroke ColorStrokeGray" data-item-index="none" data-renderer-id="0" transform="translate(231, 30)"><g id="cu_zofh0gxw12q1-stroke" fill="none" stroke-linecap="round" stroke-linejoin="round" stroke-miterlimit="4" stroke="#888888" stroke-width="2" stroke-dasharray="5.0, 7.0"><g><path d="M 58 97L 55 97L 54.9 97C 43.357245 96.999996 33.999997 87.642747 33.999997 76.099997L 34 76L 34 30.9C 33.999998 19.357248 24.64275 10 13.1 10L 13 10L 10 10"></path></g></g></g><g id="g-root-tx_uploadfi_924xcwxvzojz-stroke" data-item-order="1000000000" data-item-id="tx_uploadfi_924xcwxvzojz" data-item-class="Label Stroke" data-item-index="none" data-renderer-id="0" transform="translate(63, 105)"></g><g id="g-root-dock_v642jkxvwtft-stroke" data-item-order="1000000000" data-item-id="dock_v642jkxvwtft" data-item-class="Icon Stroke" data-item-index="none" data-renderer-id="0" transform="translate(333, 99)"><g id="dock_v642jkxvwtft-stroke" fill="none" stroke-linecap="round" stroke-linejoin="round" stroke-miterlimit="4" stroke="#484848" stroke-width="2"><g><path d="M 12 37C 11.727344 36.99976 11.466412 37.110863 11.277619 37.307583C 11.088828 37.504303 10.988548 37.769585 11 38.042C 11.43 47.987999 17.848 55 27.99 55C 38.482002 55 49.990002 46.493999 49.990002 36C 51.313225 36.562279 52.808643 36.559978 54.130127 35.993629C 55.451611 35.427277 56.484604 34.345978 56.990002 33C 56.484417 31.656559 55.453087 30.577232 54.134014 30.011106C 52.814938 29.444981 51.322098 29.440971 50.000004 30.000002C 51 25 45 23 45 23C 45 23 42 28 45 32C 45 32 46 37 42 37ZM 22.99 44C 22.99 44.552284 23.437716 45 23.99 45C 24.542286 45 24.99 44.552284 24.99 44C 24.99 43.447716 24.542286 43 23.99 43C 23.437716 43 22.99 43.447716 22.99 44M 14.99 29L 22.99 29L 22.99 37L 14.99 37ZM 22.99 29L 30.99 29L 30.99 37L 22.99 37ZM 30.99 29L 38.989998 29L 38.989998 37L 30.99 37ZM 22.99 21L 30.99 21L 30.99 29L 22.99 29ZM 22.99 13L 30.99 13L 30.99 21L 22.99 21ZM 30.99 21L 38.989998 21L 38.989998 29L 30.99 29Z"></path></g></g></g><g id="g-root-cu_mdlfq8xw11xn-stroke" data-item-order="1000000000" data-item-id="cu_mdlfq8xw11xn" data-item-class="Curve Stroke ColorStrokeGray" data-item-index="none" data-renderer-id="0" transform="translate(507, 93)"><g id="cu_mdlfq8xw11xn-stroke" fill="none" stroke-linecap="round" stroke-linejoin="round" stroke-miterlimit="4" stroke="#888888" stroke-width="2" stroke-dasharray="5.0, 7.0"><g><path d="M 10 10L 10 22L 10 34L 19 34L 28 34"></path></g></g></g><g id="g-root-cu_mdlfq8xw11xq-stroke" data-item-order="1000000000" data-item-id="cu_mdlfq8xw11xq" data-item-class="Curve Stroke ColorStrokeGray" data-item-index="none" data-renderer-id="0" transform="translate(507, 93)"><g id="cu_mdlfq8xw11xq-stroke" fill="none" stroke-linecap="round" stroke-linejoin="round" stroke-miterlimit="4" stroke="#888888" stroke-width="2" stroke-dasharray="5.0, 7.0"><g><path d="M 10 10L 10 40L 10 70L 19 70L 28 70"></path></g></g></g><g id="g-root-cu_hxrxlsxw12q0-stroke" data-item-order="1000000000" data-item-id="cu_hxrxlsxw12q0" data-item-class="Curve Stroke ColorStrokeGray" data-item-index="none" data-renderer-id="0" transform="translate(507, 93)"><g id="cu_hxrxlsxw12q0-stroke" fill="none" stroke-linecap="round" stroke-linejoin="round" stroke-miterlimit="4" stroke="#888888" stroke-width="2" stroke-dasharray="5.0, 7.0"><g><path d="M 10 10L 10 58L 10 106L 19 106L 28 106"></path></g></g></g><g id="g-root-cu_hxrxlsxw12q2-stroke" data-item-order="1000000000" data-item-id="cu_hxrxlsxw12q2" data-item-class="Curve Stroke ColorStrokeGray" data-item-index="none" data-renderer-id="0" transform="translate(507, 93)"><g id="cu_hxrxlsxw12q2-stroke" fill="none" stroke-linecap="round" stroke-linejoin="round" stroke-miterlimit="4" stroke="#888888" stroke-width="2" stroke-dasharray="5.0, 7.0"><g><path d="M 10 10L 10 26.5L 10 130C 10.000005 136.627425 15.372589 142.000008 22.000006 142.000007L 22.1 142L 28 142"></path></g></g></g><g id="g-root-tx_cleanint_74e74xvzmys-stroke" data-item-order="1000000000" data-item-id="tx_cleanint_74e74xvzmys" data-item-class="Label Stroke" data-item-index="none" data-renderer-id="0" transform="translate(531, 105)"></g><g id="g-root-tx_download_dhyfhcxvzojk-stroke" data-item-order="1000000000" data-item-id="tx_download_dhyfhcxvzojk" data-item-class="Label Stroke" data-item-index="none" data-renderer-id="0" transform="translate(39, 141)"></g><g id="g-root-tx_dockerfl_1lsem74xvwtfs-stroke" data-item-order="1000000000" data-item-id="tx_dockerfl_1lsem74xvwtfs" data-item-class="Label Stroke" data-item-index="none" data-renderer-id="0" transform="translate(303, 153)"></g><g id="g-root-tx_fastandr_74e74xvzmyt-stroke" data-item-order="1000000000" data-item-id="tx_fastandr_74e74xvzmyt" data-item-class="Label Stroke" data-item-index="none" data-renderer-id="0" transform="translate(531, 141)"></g><g id="g-root-tx_realtime_hxrxlsxvznr9-stroke" data-item-order="1000000000" data-item-id="tx_realtime_hxrxlsxvznr9" data-item-class="Label Stroke" data-item-index="none" data-renderer-id="0" transform="translate(285, 435)"></g><g id="g-root-tx_crosspla_1qclfxcxvznke-stroke" data-item-order="1000000000" data-item-id="tx_crosspla_1qclfxcxvznke" data-item-class="Label Stroke" data-item-index="none" data-renderer-id="0" transform="translate(531, 177)"></g><g id="g-root-tx_deletefi_4mbf8gxvzpca-stroke" data-item-order="1000000000" data-item-id="tx_deletefi_4mbf8gxvzpca" data-item-class="Label Stroke" data-item-index="none" data-renderer-id="0" transform="translate(75, 213)"></g><g id="g-root-cu_1448z4wxw11xq-stroke" data-item-order="1000000000" data-item-id="cu_1448z4wxw11xq" data-item-class="Curve Stroke ColorStrokeGray" data-item-index="none" data-renderer-id="0" transform="translate(357, 201)"><g id="cu_1448z4wxw11xq-stroke" fill="none" stroke-linecap="round" stroke-linejoin="round" stroke-miterlimit="4" stroke="#888888" stroke-width="2" stroke-dasharray="5.0, 7.0"><g><path d="M 10 10L 10 58L 10 106"></path></g></g></g><g id="g-root-tx_noinstal_1lwrxswxvzocn-stroke" data-item-order="1000000000" data-item-id="tx_noinstal_1lwrxswxvzocn" data-item-class="Label Stroke" data-item-index="none" data-renderer-id="0" transform="translate(531, 213)"></g><g id="g-root-tx_createne_4mbf8gxvzpcb-stroke" data-item-order="1000000000" data-item-id="tx_createne_4mbf8gxvzpcb" data-item-class="Label Stroke" data-item-index="none" data-renderer-id="0" transform="translate(27, 249)"></g><g id="g-root-alte_1czvzdsxw1150-stroke" data-item-order="1000000000" data-item-id="alte_1czvzdsxw1150" data-item-class="Icon Stroke" data-item-index="none" data-renderer-id="0" transform="translate(189, 15)"><g id="alte_1czvzdsxw1150-stroke" fill="none" stroke-linecap="round" stroke-linejoin="round" stroke-miterlimit="4" stroke="#3bc482" stroke-width="2"><g><path d="M 15.357142 21.785713L 15.357142 13.214286C 15.357142 12.030818 16.316532 11.071428 17.5 11.071428L 28.214285 11.071428L 38.92857 21.785713L 38.92857 36.785713C 38.92857 37.969181 37.969181 38.92857 36.785713 38.92857L 26.071428 38.92857M 28.214285 11.071428L 28.214285 21.785713L 38.92857 21.785713M 17.5 26.071428L 17.5 38.92857M 11.071428 32.5L 23.928572 32.5"></path></g></g></g><g id="g-root-milk_v5hlggxvyarp-stroke" data-item-order="1000000000" data-item-id="milk_v5hlggxvyarp" data-item-class="Icon Stroke" data-item-index="none" data-renderer-id="0" transform="translate(249, 309)"><g id="milk_v5hlggxvyarp-stroke" fill="none" stroke-linecap="round" stroke-linejoin="round" stroke-miterlimit="4" stroke="#4682e3" stroke-width="2"><g><path d="M 31.42857 16.428572L 18.571428 16.428572L 16.728571 21.014284C 16.532202 21.527449 16.430557 22.07198 16.42857 22.621428L 16.428572 36.785713C 16.428572 37.969181 17.38796 38.92857 18.571428 38.92857L 31.42857 38.92857C 32.612038 38.92857 33.571426 37.969181 33.571426 36.785713L 33.571426 22.621428C 33.569439 22.07198 33.467793 21.527449 33.271427 21.014284ZM 18.571428 16.428572L 18.571428 13.214286C 18.571428 12.030818 19.530819 11.071428 20.714285 11.071428L 29.285713 11.071428C 30.469181 11.071428 31.42857 12.030818 31.42857 13.214286L 31.42857 16.428572M 16.428572 31.42857C 19.642857 28.214285 25 22.642857 33.571426 23.714285"></path></g></g></g><g id="g-root-tx_containe_zlb3kwxvy9zg-stroke" data-item-order="1000000000" data-item-id="tx_containe_zlb3kwxvy9zg" data-item-class="Label Stroke" data-item-index="none" data-renderer-id="0" transform="translate(285, 312)"></g><g id="g-root-cu_zofh0gxw12q7-stroke" data-item-order="1000000000" data-item-id="cu_zofh0gxw12q7" data-item-class="Curve Stroke ColorStrokeGray" data-item-index="none" data-renderer-id="0" transform="translate(261, 351)"><g id="cu_zofh0gxw12q7-stroke" fill="none" stroke-linecap="round" stroke-linejoin="round" stroke-miterlimit="4" stroke="#888888" stroke-width="2" stroke-dasharray="5.0, 7.0"><g><path d="M 10 10L 10 22L 10 34L 19 34L 28 34"></path></g></g></g><g id="g-root-cu_v8lyw0xw13ii-stroke" data-item-order="1000000000" data-item-id="cu_v8lyw0xw13ii" data-item-class="Curve Stroke ColorStrokeGray" data-item-index="none" data-renderer-id="0" transform="translate(261, 351)"><g id="cu_v8lyw0xw13ii-stroke" fill="none" stroke-linecap="round" stroke-linejoin="round" stroke-miterlimit="4" stroke="#888888" stroke-width="2" stroke-dasharray="5.0, 7.0"><g><path d="M 10 10L 10 40L 10 70L 19 70L 28 70"></path></g></g></g><g id="g-root-cu_v8lyw0xw13ik-stroke" data-item-order="1000000000" data-item-id="cu_v8lyw0xw13ik" data-item-class="Curve Stroke ColorStrokeGray" data-item-index="none" data-renderer-id="0" transform="translate(261, 351)"><g id="cu_v8lyw0xw13ik-stroke" fill="none" stroke-linecap="round" stroke-linejoin="round" stroke-miterlimit="4" stroke="#888888" stroke-width="2" stroke-dasharray="5.0, 7.0"><g><path d="M 10 10L 10 22L 10 94C 10.000004 100.627423 15.372587 106.000006 22.000005 106.000005L 22.1 106L 28 106"></path></g></g></g><g id="g-root-tx_viewallc_mdlfq8xvzmyz-stroke" data-item-order="1000000000" data-item-id="tx_viewallc_mdlfq8xvzmyz" data-item-class="Label Stroke" data-item-index="none" data-renderer-id="0" transform="translate(285, 363)"></g><g id="g-root-tx_quickacc_mdlfq8xvzmz0-stroke" data-item-order="1000000000" data-item-id="tx_quickacc_mdlfq8xvzmz0" data-item-class="Label Stroke" data-item-index="none" data-renderer-id="0" transform="translate(285, 399)"></g><g id="g-root-tx_filemana_1hf30f4xw13ij-stroke" data-item-order="1000000000" data-item-id="tx_filemana_1hf30f4xw13ij" data-item-class="Label Stroke" data-item-index="none" data-renderer-id="0" transform="translate(15, 18)"></g><g id="g-root-tx_editfile_4mbf8gxvzpc9-stroke" data-item-order="1000000000" data-item-id="tx_editfile_4mbf8gxvzpc9" data-item-class="Label Stroke" data-item-index="none" data-renderer-id="0" transform="translate(99, 177)"></g></g></g></svg>